<svg width="20" height="20" viewBox="0 0 20 20" fill="none" xmlns="http://www.w3.org/2000/svg">
<path fill-rule="evenodd" clip-rule="evenodd" d="M16.1538 1.53846H3.84615C2.57165 1.53846 1.53846 2.57165 1.53846 3.84615V16.1538C1.53846 17.4284 2.57165 18.4615 3.84615 18.4615H16.1538C17.4284 18.4615 18.4615 17.4284 18.4615 16.1538V3.84615C18.4615 2.57165 17.4284 1.53846 16.1538 1.53846ZM3.84615 0C1.72198 0 0 1.72198 0 3.84615V16.1538C0 18.278 1.72198 20 3.84615 20H16.1538C18.278 20 20 18.278 20 16.1538V3.84615C20 1.72198 18.278 0 16.1538 0H3.84615Z" fill="#1B1F2B"/>
<path fill-rule="evenodd" clip-rule="evenodd" d="M5.61033 9.64296C5.91074 9.34256 6.39779 9.34256 6.69819 9.64296L8.94 11.8848L13.9675 6.85722C14.268 6.55682 14.755 6.55682 15.0554 6.85722C15.3558 7.15763 15.3558 7.64468 15.0554 7.94508L9.48393 13.5166C9.18353 13.817 8.69648 13.817 8.39607 13.5166L5.61033 10.7308C5.30993 10.4304 5.30993 9.94336 5.61033 9.64296Z" fill="#1B1F2B"/>
</svg>
