<svg width="26" height="26" viewBox="0 0 26 26" fill="none" xmlns="http://www.w3.org/2000/svg">
<path fill-rule="evenodd" clip-rule="evenodd" d="M21 2H5C3.34315 2 2 3.34315 2 5V21C2 22.6569 3.34315 24 5 24H21C22.6569 24 24 22.6569 24 21V5C24 3.34315 22.6569 2 21 2ZM5 0C2.23858 0 0 2.23858 0 5V21C0 23.7614 2.23858 26 5 26H21C23.7614 26 26 23.7614 26 21V5C26 2.23858 23.7614 0 21 0H5Z" fill="#1B1F2B"/>
<path fill-rule="evenodd" clip-rule="evenodd" d="M7.29304 12.5358C7.68357 12.1453 8.31673 12.1453 8.70726 12.5358L11.6216 15.4502L18.1574 8.91435C18.5479 8.52383 19.1811 8.52383 19.5716 8.91435C19.9622 9.30488 19.9622 9.93804 19.5716 10.3286L12.3287 17.5715C11.9382 17.962 11.305 17.962 10.9145 17.5715L7.29304 13.95C6.90252 13.5595 6.90252 12.9263 7.29304 12.5358Z" fill="#1B1F2B"/>
</svg>
