<svg width="132" height="22" viewBox="0 0 133 22" fill="#1B1F2B;" xmlns="http://www.w3.org/2000/svg">
<path d="M5.46819 0L10.1684 9.59444L14.93 0H20.4289L12.6567 14.3V21.6944H7.64932V14.2389L0 0H5.46819Z" fill="#1B1F2B;"/>
<path d="M26.9197 22C25.0765 22 23.5098 21.613 22.2195 20.8389C20.9498 20.0648 19.977 19.0463 19.3011 17.7833C18.6253 16.5204 18.2874 15.1556 18.2874 13.6889C18.2874 12.2019 18.6253 10.8269 19.3011 9.56389C19.977 8.30093 20.96 7.28241 22.2503 6.50833C23.5405 5.73426 25.097 5.34722 26.9197 5.34722C28.7425 5.34722 30.2989 5.73426 31.5892 6.50833C32.8794 7.28241 33.8625 8.30093 34.5383 9.56389C35.2142 10.8269 35.5521 12.2019 35.5521 13.6889C35.5521 15.1556 35.2142 16.5204 34.5383 17.7833C33.8625 19.0463 32.8794 20.0648 31.5892 20.8389C30.2989 21.613 28.7425 22 26.9197 22ZM23.3255 13.6889C23.3255 14.9315 23.6634 15.9398 24.3392 16.7139C25.0356 17.488 25.8957 17.875 26.9197 17.875C27.9233 17.875 28.7629 17.488 29.4388 16.7139C30.1351 15.9398 30.4833 14.9315 30.4833 13.6889C30.4833 12.4463 30.1351 11.438 29.4388 10.6639C28.7629 9.88982 27.9233 9.50278 26.9197 9.50278C25.8957 9.50278 25.0356 9.88982 24.3392 10.6639C23.6634 11.438 23.3255 12.4463 23.3255 13.6889Z" fill="#1B1F2B;"/>
<path d="M37.8362 15.9194V5.65278H42.7514V14.85C42.7514 16.8667 43.4989 17.875 44.994 17.875C45.6493 17.875 46.2842 17.7019 46.8986 17.3556C47.513 16.9889 48.0558 16.388 48.5268 15.5528V5.65278H53.442V16.2556C53.442 16.7444 53.5137 17.0907 53.6571 17.2944C53.8209 17.4981 54.0974 17.6102 54.4865 17.6306V21.6944C54.0155 21.7759 53.6161 21.837 53.2884 21.8778C52.9607 21.9185 52.6638 21.9389 52.3975 21.9389C50.6362 21.9389 49.6327 21.2565 49.387 19.8917L49.2948 18.9139C48.5575 19.9732 47.6359 20.7574 46.53 21.2667C45.4445 21.7556 44.226 22 42.8743 22C41.2359 22 39.9866 21.4806 39.1264 20.4417C38.2663 19.4028 37.8362 17.8954 37.8362 15.9194Z" fill="#1B1F2B;"/>
<path d="M67.4797 9.83889C66.2918 9.85926 65.2166 10.0528 64.2541 10.4194C63.2915 10.7861 62.5952 11.3361 62.1651 12.0694V21.6944H57.2499V5.65278H61.7657V8.89167C62.3187 7.81204 63.0355 6.96667 63.9161 6.35556C64.7968 5.74445 65.7184 5.4287 66.681 5.40833C67.0906 5.40833 67.3568 5.41852 67.4797 5.43889V9.83889Z" fill="#1B1F2B;"/>
<path d="M85.5189 4.4H78.8833V21.6944H73.8452V4.4H67.179V0H85.5189V4.4Z" fill="#1B1F2B;"/>
<path d="M92.44 22C90.5968 22 89.0301 21.613 87.7399 20.8389C86.4701 20.0648 85.4973 19.0463 84.8214 17.7833C84.1456 16.5204 83.8077 15.1556 83.8077 13.6889C83.8077 12.2019 84.1456 10.8269 84.8214 9.56389C85.4973 8.30093 86.4803 7.28241 87.7706 6.50833C89.0608 5.73426 90.6173 5.34722 92.44 5.34722C94.2628 5.34722 95.8193 5.73426 97.1095 6.50833C98.3997 7.28241 99.3828 8.30093 100.059 9.56389C100.734 10.8269 101.072 12.2019 101.072 13.6889C101.072 15.1556 100.734 16.5204 100.059 17.7833C99.3828 19.0463 98.3997 20.0648 97.1095 20.8389C95.8193 21.613 94.2628 22 92.44 22ZM88.8458 13.6889C88.8458 14.9315 89.1837 15.9398 89.8596 16.7139C90.5559 17.488 91.416 17.875 92.44 17.875C93.4436 17.875 94.2832 17.488 94.9591 16.7139C95.6554 15.9398 96.0036 14.9315 96.0036 13.6889C96.0036 12.4463 95.6554 11.438 94.9591 10.6639C94.2832 9.88982 93.4436 9.50278 92.44 9.50278C91.416 9.50278 90.5559 9.88982 89.8596 10.6639C89.1837 11.438 88.8458 12.4463 88.8458 13.6889Z" fill="#1B1F2B;"/>
<path d="M103.356 15.9194V5.65278H108.272V14.85C108.272 16.8667 109.019 17.875 110.514 17.875C111.17 17.875 111.805 17.7019 112.419 17.3556C113.033 16.9889 113.576 16.388 114.047 15.5528V5.65278H118.962V16.2556C118.962 16.7444 119.034 17.0907 119.177 17.2944C119.341 17.4981 119.618 17.6102 120.007 17.6306V21.6944C119.536 21.7759 119.136 21.837 118.809 21.8778C118.481 21.9185 118.184 21.9389 117.918 21.9389C116.157 21.9389 115.153 21.2565 114.907 19.8917L114.815 18.9139C114.078 19.9732 113.156 20.7574 112.05 21.2667C110.965 21.7556 109.746 22 108.395 22C106.756 22 105.507 21.4806 104.647 20.4417C103.787 19.4028 103.356 17.8954 103.356 15.9194Z" fill="#1B1F2B;"/>
<path d="M133 9.83889C131.812 9.85926 130.737 10.0528 129.774 10.4194C128.812 10.7861 128.115 11.3361 127.685 12.0694V21.6944H122.77V5.65278H127.286V8.89167C127.839 7.81204 128.556 6.96667 129.436 6.35556C130.317 5.74445 131.239 5.4287 132.201 5.40833C132.611 5.40833 132.877 5.41852 133 5.43889V9.83889Z" fill="#1B1F2B;"/>
</svg>
